<svg xmlns="http://www.w3.org/2000/svg" viewBox="0 0 88 88"><title>Artboard-17</title><g id="Diamond"><path d="M76.814,37.4189l-10-14A1.0516,1.0516,0,0,0,66,23H22a1.0509,1.0509,0,0,0-.814.4189l-10,14a1.0077,1.0077,0,0,0,.0054,1.1695l32,44a.9993.9993,0,0,0,1.6172,0l32-44A1.0057,1.0057,0,0,0,76.814,37.4189ZM21.7277,26.1017,25.8615,37H13.9429ZM59.2408,39,44,79.18,28.7592,39ZM30.0585,37,43.9974,25.3073,57.9408,37ZM46.7432,25H64.5511L60.2537,36.33ZM27.7462,36.3294,23.4489,25H41.252ZM26.62,39,40.4167,75.3728,13.9636,39Zm34.76,0H74.0364L47.5833,75.3728Zm.7586-2,4.1338-10.8983L74.0571,37Z" style="fill:#202021"/><path d="M44,18a1,1,0,0,0,1-1V6a1,1,0,0,0-2,0V17A1,1,0,0,0,44,18Z" style="fill:#202021"/><path d="M33.293,18.707a1,1,0,0,0,1.414-1.414l-7-7a1,1,0,0,0-1.414,1.414Z" style="fill:#202021"/><path d="M54.707,18.707l7-7a1,1,0,0,0-1.414-1.414l-7,7a1,1,0,0,0,1.414,1.414Z" style="fill:#202021"/></g></svg>